<svg width="14" height="14" viewBox="0 0 14 14" fill="none" xmlns="http://www.w3.org/2000/svg">
<path fill-rule="evenodd" clip-rule="evenodd" d="M4.38849 3.28425L3.76925 2.77271C3.58079 2.6381 3.3654 2.66502 3.20386 2.82656L0.0807697 6.75731C-0.0269232 6.89193 -0.0269232 7.10731 0.0807697 7.26885L3.23079 11.1727C3.3654 11.3342 3.60771 11.3881 3.79618 11.2265L4.41541 10.715C4.60387 10.5804 4.6308 10.3111 4.46926 10.1496L1.93847 6.99962L4.49618 3.84963C4.60387 3.68809 4.57695 3.44579 4.38849 3.28425ZM13.9192 6.75709L10.7692 2.85327C10.6346 2.69173 10.3923 2.63788 10.2038 2.79942L9.58458 3.31096C9.39611 3.44557 9.36919 3.7148 9.53073 3.87634L12.0884 7.02632L9.53073 10.1763C9.39611 10.3378 9.42304 10.6071 9.58458 10.7417L10.2038 11.2532C10.3923 11.3878 10.6077 11.3609 10.7692 11.1994L13.9192 7.26863C14.0269 7.08017 14.0269 6.89171 13.9192 6.75709ZM8.50761 2.90734L7.69991 2.71888C7.48453 2.66503 7.24222 2.79965 7.18837 3.01503L5.19605 10.6611C5.14221 10.8765 5.27682 11.0919 5.49221 11.1458L6.29991 11.3342C6.51529 11.3881 6.7576 11.2535 6.81145 11.0381L8.80377 3.39195C8.85761 3.14965 8.723 2.96118 8.50761 2.90734Z" fill="white"/>
</svg>
