<svg width="14" height="14" viewBox="0 0 14 14" fill="none" xmlns="http://www.w3.org/2000/svg">
<path fill-rule="evenodd" clip-rule="evenodd" d="M2.20774 13.3539L10.6885 4.87312C10.9308 4.63081 11.3077 4.81928 11.3077 5.11543V10.0154C11.3077 10.3116 11.55 10.5539 11.8462 10.5539H12.977C13.2731 10.5539 13.5154 10.3116 13.5154 10.0154L13.4616 1.10389C13.4616 0.807737 13.2193 0.56543 12.9231 0.56543H3.98466C3.6885 0.56543 3.4462 0.807737 3.4462 1.10389V2.18081C3.4462 2.47697 3.6885 2.71928 3.98466 2.71928H8.88466C9.20774 2.7462 9.3962 3.12312 9.15389 3.36543L0.700043 11.8193C0.484659 12.0347 0.457736 12.3577 0.67312 12.5462L1.42697 13.3C1.64235 13.5154 1.99235 13.5693 2.20774 13.3539Z" fill="white"/>
</svg>
