<svg width="32" height="32" viewBox="0 0 32 32" fill="none" xmlns="http://www.w3.org/2000/svg">
<path d="M30.1288 17.0334L24.1534 20.018C22.3565 20.9103 20.9103 22.3688 20.0119 24.1596L17.0272 30.1288C16.6026 30.978 15.3842 30.978 14.9596 30.1288L11.9749 24.1596C11.0826 22.3688 9.62417 20.9165 7.8334 20.018L1.87032 17.0334C1.02109 16.6088 1.02109 15.3903 1.87032 14.9657L7.84571 11.9811C9.64263 11.0888 11.0888 9.63032 11.9872 7.83955L14.9657 1.87032C15.3903 1.02109 16.6088 1.02109 17.0334 1.87032L20.018 7.83955C20.9103 9.63032 22.3688 11.0826 24.1596 11.9811L30.1349 14.9657C30.9842 15.3903 30.9842 16.6088 30.1349 17.0334H30.1288Z" fill="url(#paint0_linear_1266_3981)"/>
<defs>
<linearGradient id="paint0_linear_1266_3981" x1="6.69109" y1="19.7526" x2="21.7027" y2="19.7656" gradientUnits="userSpaceOnUse">
<stop offset="0.399038" stop-color="#EF7100"/>
<stop offset="1" stop-color="#FFB621"/>
</linearGradient>
</defs>
</svg>
